<?xml version="1.0" encoding="UTF-8"?><svg id="Layer_1" xmlns="http://www.w3.org/2000/svg" width="706.4" height="171.6" viewBox="0 0 706.4 171.6"><defs><style>.cls-1{fill:#1c1c1c;}</style></defs><path class="cls-1" d="m126.63,150.3c-13.41,13.41-29.04,20.12-46.87,20.12-11.05,0-21.42-2.21-31.13-6.63-9.7-4.42-18.15-10.49-25.33-18.23-7.18-7.73-12.86-16.84-17.04-27.34C2.09,107.74,0,96.42,0,84.26c0-11.52,2.09-22.37,6.27-32.55,4.18-10.18,9.94-19.09,17.28-26.75,7.34-7.65,15.98-13.73,25.92-18.23C59.41,2.25,70.22,0,81.9,0c15.78,0,29.31,3.31,40.59,9.94,11.28,6.63,19.76,15.54,25.45,26.75l-24.38,17.99c-4.26-8.36-10.22-14.75-17.87-19.17-7.66-4.42-15.98-6.63-24.97-6.63-7.1,0-13.61,1.5-19.53,4.5-5.92,3-10.97,7.1-15.15,12.31-4.18,5.21-7.42,11.21-9.7,17.99-2.29,6.79-3.43,13.97-3.43,21.54s1.26,15.27,3.79,22.13c2.52,6.86,5.99,12.82,10.41,17.87,4.42,5.05,9.66,9.04,15.74,11.95,6.07,2.92,12.66,4.38,19.76,4.38,16.25,0,30.93-7.65,44.03-22.96v-11.83h-33.85v-23.91h60.83v86.39h-26.98v-18.94Z"/><path class="cls-1" d="m235.98,171.6c-9.94,0-18.93-1.7-26.98-5.09-8.05-3.39-14.91-8.01-20.59-13.85-5.68-5.84-10.06-12.62-13.14-20.36-3.08-7.73-4.62-15.86-4.62-24.38s1.5-17.16,4.5-24.97c3-7.81,7.34-14.67,13.02-20.59,5.68-5.92,12.58-10.61,20.71-14.08,8.13-3.47,17.24-5.21,27.34-5.21s19.13,1.74,27.1,5.21c7.97,3.47,14.75,8.13,20.36,13.97,5.6,5.84,9.86,12.63,12.78,20.36,2.92,7.73,4.38,15.78,4.38,24.14,0,2.05-.04,4.02-.12,5.92-.08,1.89-.28,3.47-.59,4.73h-95.86c.47,4.89,1.66,9.23,3.55,13.02,1.89,3.79,4.34,7.02,7.34,9.7,2.99,2.68,6.39,4.73,10.18,6.15s7.73,2.13,11.83,2.13c6.31,0,12.27-1.54,17.87-4.62,5.6-3.08,9.43-7.14,11.48-12.19l27.22,7.57c-4.58,9.47-11.88,17.24-21.89,23.31-10.02,6.08-21.98,9.11-35.86,9.11Zm32.19-74.8c-.79-9.31-4.22-16.77-10.3-22.37-6.08-5.6-13.45-8.4-22.13-8.4-4.26,0-8.25.75-11.95,2.25-3.71,1.5-6.98,3.59-9.82,6.27-2.84,2.68-5.17,5.92-6.98,9.7-1.82,3.79-2.88,7.97-3.2,12.55h64.38Z"/><path class="cls-1" d="m512.92,169.24h-31.72v-69.59c0-9.94-1.7-17.2-5.09-21.78-3.4-4.57-8.09-6.86-14.08-6.86-6.31,0-12.23,2.41-17.75,7.22-5.52,4.82-9.47,11.09-11.83,18.82v72.19h-31.72v-69.59c0-9.94-1.7-17.2-5.09-21.78-3.39-4.57-8.09-6.86-14.08-6.86s-12.03,2.37-17.63,7.1c-5.6,4.73-9.59,10.97-11.95,18.7v72.43h-31.72V45.21h28.64v22.96c4.58-8.05,10.85-14.24,18.82-18.58,7.97-4.34,17.08-6.51,27.34-6.51s18.46,2.53,24.14,7.57c5.68,5.05,9.31,11.28,10.89,18.7,5.05-8.52,11.44-15.03,19.17-19.53,7.73-4.5,16.57-6.75,26.51-6.75,7.57,0,13.81,1.42,18.7,4.26,4.89,2.84,8.68,6.55,11.36,11.12,2.68,4.58,4.53,9.79,5.56,15.62,1.02,5.84,1.54,11.76,1.54,17.75v77.4Z"/><path class="cls-1" d="m687.37,119.19l-11.2-29.45L642.49,1.18h-28.88l-31.73,83.12c8.68,1.32,17.25,3.3,25.65,5.26.91.21,1.8.42,2.71.63l17.82-51.85,19.68,57.58,2.89,8.44c-14.39.44-28.77-2.75-43.16-6.1-9.56-2.23-19.11-4.52-28.67-5.85-15.49-2.16-30.98-1.82-46.47,5.42v22.82c12.7-5.93,25.4-7.23,38.1-6.32l-3.18,8.33-17.78,46.57h33.61l14.35-41.76,2.77-8.07c19.34,4.44,38.68,9.67,58.01,7.2l2.79,8.17,11.78,34.46h33.61l-19.03-50.05Z"/></svg>