<?xml version="1.0" encoding="UTF-8"?>
<svg id="Layer_1" xmlns="http://www.w3.org/2000/svg" version="1.1" viewBox="0 0 818.88 89.89">
  <!-- Generator: Adobe Illustrator 29.7.1, SVG Export Plug-In . SVG Version: 2.1.1 Build 8)  -->
  <defs>
    <style>
      .st0 {
        fill: #1c1c1c;
      }
    </style>
  </defs>
  <path class="st0" d="M712.06,80.77h13.44V28.63c0-3.77-.1-7.13-.51-9.37h.51c.71,2.24,1.73,5.5,3.06,8.55l25.77,52.96h14.36l26.27-52.96c1.43-3.05,2.95-7.13,3.46-8.55h.51c-.41,2.44-.61,6.31-.61,9.37v52.14h13.95V8.46h-23.32l-24.64,50.51c-.92,2.34-1.93,4.79-2.34,6.72h-.31c-.41-1.93-1.32-4.28-2.34-6.62l-24.34-50.61h-22.91v72.31ZM640.57,54.8l9.37-18.53c4.38-8.15,6.52-12.32,8.35-18.03h.31c1.83,5.7,3.97,9.88,8.35,18.03l9.37,18.53h-35.75ZM689.55,80.77h16.4l-38.6-72.31h-17.82l-38.6,72.31h16.4l7.74-15.28h46.74l7.74,15.28ZM550.75,69.46v-20.16h53.67v-10.8h-53.67v-18.74h55.4v-11.3h-70.57v72.31h71.29v-11.3h-56.11ZM495.96,69.87h-34.73v-20.77h34.73c9.98,0,13.85,4.28,13.85,10.39s-4.07,10.39-13.85,10.39M495.14,19.36c10.18,0,12.73,4.89,12.73,9.06,0,4.99-1.93,10.29-12.73,10.29h-33.91v-19.35h33.91ZM509.81,43.09c9.17-1.83,13.65-8.55,13.65-16.09,0-9.78-7.13-18.53-24.85-18.53h-52.55v72.31h52.85c19.04,0,26.48-9.06,26.48-20.27,0-9.17-4.69-15.68-15.58-17.41M373.95,19.46h29.84c11.51,0,14.87,5.8,14.87,11.3s-3.46,11.81-14.97,11.81h-29.74v-23.12ZM419.88,80.77h17.52l-20.16-29.33c13.04-3.26,17.41-12.83,17.41-20.88,0-10.39-6.21-22.1-27.7-22.1h-48.17v72.31h15.17v-27.5h26.99l18.94,27.5ZM290.65,69.46v-20.16h53.67v-10.8h-53.67v-18.74h55.4v-11.3h-70.58v72.31h71.29v-11.3h-56.11ZM236.88,45.02h-29.23v-25.56h29.33c9.98,0,15.68,4.58,15.68,12.53s-5.91,13.04-15.78,13.04M240.34,8.46h-47.86v72.31h15.17v-24.75h31.16c18.02,0,29.84-9.47,29.84-24.24s-10.8-23.32-28.31-23.32M97.06,8.46v39.31c0,20.77,14.87,35.54,41.55,35.54s41.55-14.67,41.55-35.44V8.46h-15.28v38.29c0,13.65-9.67,24.34-26.27,24.34s-26.27-10.69-26.27-24.34V8.46h-15.28ZM52.15,83.31c25.15,0,38.7-8.35,38.7-23.73,0-12.83-8.04-18.74-27.09-20.67l-21.28-2.14c-11.51-1.22-15.28-3.46-15.28-9.47,0-6.62,7.43-10.08,21.29-10.08,15.78,0,25.46,4.99,30.25,14.16l11.71-6.72c-7.23-12.53-20.67-18.74-41.35-18.74C25.26,5.92,11.92,14.06,11.92,28.12c0,12.53,8.04,18.94,25.15,20.67l22.81,2.24c11.2,1.12,15.48,3.87,15.48,9.98,0,7.54-7.13,10.9-22.61,10.9-17.11,0-28.11-5.91-33.1-16.6l-12.63,6.01c6.31,14.46,21.69,22,45.11,22"/>
</svg>